<svg xmlns="http://www.w3.org/2000/svg" width="96" height="56" viewBox="0 0 96 56" fill="none"><path d="M23.5663 53.8712C22.4572 53.6294 21.3542 53.277 20.1936 52.794C20.1797 52.7875 20.1453 52.7491 20.1345 52.7146C20.0188 52.3253 19.9801 51.9332 20.0157 51.5156C20.243 48.8498 18.6349 46.0409 16.1925 44.8366C16.1406 44.8106 16.0864 44.7881 16.0241 44.7629L15.9661 44.7392C15.9111 44.716 15.8441 44.7256 15.7997 44.7608C15.7517 44.7974 15.7279 44.8569 15.7377 44.9166L15.8045 45.3254C15.8638 45.6871 15.9219 46.041 15.9776 46.3953L15.9917 46.488C16.1485 47.4948 16.3106 48.536 16.6265 49.5362C16.9115 50.4386 17.3512 51.1507 17.9629 51.6963C16.6707 50.9441 15.4665 50.0402 14.373 49.0006C14.35 48.9787 14.3227 48.9209 14.3188 48.8732L14.2895 48.1597C14.2893 48.1343 14.289 48.067 14.3035 48.0337C14.8422 46.7949 14.9802 45.4005 14.7257 43.7711C14.4802 42.1996 13.8005 40.7544 12.7052 39.4756C12.577 39.3258 12.4639 39.25 12.369 39.25C12.3458 39.25 12.3249 39.2546 12.3085 39.2631C12.2581 39.2878 12.224 39.3356 12.2173 39.391L12.188 39.6398C12.1654 39.8246 12.1436 40.0059 12.1241 40.1876C12.0903 40.5077 12.0533 40.8273 12.0161 41.1471L12.0108 41.1933C11.9182 41.9916 11.8223 42.8173 11.7715 43.6439C11.7126 44.6082 11.7301 45.7345 12.3075 46.7763C12.3105 46.7816 12.3133 46.7871 12.3164 46.7924C11.5138 45.8016 10.7811 44.7355 10.1275 43.6056C10.0697 43.5051 10.0647 43.417 10.0755 43.2891C10.122 42.7482 10.3767 42.3087 10.6449 41.9145C11.163 41.1511 11.4766 40.2489 11.6619 38.9888C11.9208 37.2266 11.6593 35.4588 10.885 33.7342C10.8637 33.6866 10.8389 33.6408 10.8123 33.5915L10.7518 33.4789C10.7228 33.4239 10.661 33.3877 10.5957 33.3905C10.5306 33.3939 10.4731 33.4347 10.4495 33.4939C10.2617 33.9615 10.08 34.4121 9.89952 34.8592L9.78418 35.145C9.39926 36.0993 8.96755 37.2136 8.71664 38.3632C8.53977 39.1744 8.52898 39.9574 8.68408 40.7028C8.08218 39.2886 7.5874 37.7942 7.20847 36.2447C7.20419 36.2274 7.20282 36.1827 7.24035 36.0797C7.41756 35.6009 7.74027 35.1668 8.14919 34.8574C9.04432 34.1796 9.55213 33.2376 9.93072 32.4056C10.7059 30.7039 10.9162 28.8962 10.5734 26.8787C10.5698 26.8575 10.5633 26.8366 10.5556 26.8137L10.5494 26.7954C10.5345 26.7503 10.5006 26.7137 10.4557 26.6946C10.4118 26.6765 10.3566 26.6799 10.3225 26.6965C10.2882 26.7088 10.2363 26.7276 10.2025 26.7765C10.0085 27.0323 9.81161 27.2905 9.61452 27.5485L9.58144 27.592C9.08443 28.2435 8.57045 28.9168 8.07653 29.5876C7.50428 30.3627 7.10016 31.116 6.84086 31.8909C6.71575 32.2651 6.634 32.6253 6.59544 32.9752C6.43074 31.718 6.33733 30.4344 6.31694 29.1402C6.31214 28.8312 6.3519 28.5857 6.56562 28.3169C6.79184 28.0303 7.00316 27.8703 7.29451 27.7647C8.49162 27.3329 9.25958 26.4205 9.79481 25.6739C10.6594 24.4661 11.1666 23.0607 11.3451 21.3774C11.3642 21.2041 11.375 21.0288 11.3861 20.8434L11.3888 20.8013C11.3942 20.7111 11.3998 20.6172 11.407 20.5177C11.4115 20.4518 11.3756 20.3898 11.3158 20.3599C11.2579 20.3311 11.1837 20.3396 11.1333 20.3817L10.9912 20.5018C10.9378 20.5468 10.892 20.5854 10.8445 20.623C10.6164 20.8038 10.3875 20.9828 10.158 21.1623L10.134 21.1809C9.63028 21.5748 9.10928 21.982 8.61175 22.4026C7.64636 23.2154 7.02475 24.0244 6.65542 24.949C6.59441 25.1014 6.54094 25.2522 6.49501 25.4014C6.64685 23.9322 6.89347 22.4853 7.23212 21.0816C7.27326 20.9099 7.29622 20.8595 7.38071 20.8321C7.43384 20.8143 7.48337 20.7801 7.51953 20.7378C7.76512 20.4622 8.08852 20.4186 8.40181 20.4123C9.44725 20.3881 10.2764 19.8733 10.9494 19.3729C12.5997 18.146 13.7359 15.033 13.7359 14.9274C13.7359 14.8724 13.7082 14.8212 13.661 14.7902C13.6146 14.7599 13.5519 14.7557 13.5046 14.7765C13.1608 14.9205 12.817 15.0607 12.461 15.2061C11.6778 15.5267 10.868 15.8579 10.0903 16.2201C9.30757 16.5858 8.68905 17.0747 8.24688 17.6763C8.66831 16.4942 9.15692 15.3353 9.70398 14.2216C9.76687 14.1015 10.0623 13.9739 10.486 13.9739C10.6238 13.9739 10.7573 13.9885 10.8726 14.0159C11.868 14.2514 12.855 14.1086 13.9474 13.5697C15.065 13.0182 15.9922 12.1164 16.7819 10.8122C16.797 10.787 16.8266 10.71 16.8426 10.6669C16.8626 10.6141 16.8546 10.5559 16.8213 10.5117C16.7905 10.4698 16.7411 10.4447 16.6782 10.4447C16.6777 10.4447 16.6774 10.4447 16.6769 10.4447L16.2823 10.4693C16.0405 10.4843 15.8057 10.4991 15.5709 10.5109L15.3202 10.5234C14.5716 10.5606 13.7973 10.5989 13.0398 10.777C12.1758 10.9821 11.5415 11.2969 11.0552 11.7639C11.6308 10.818 12.2473 9.91791 12.8967 9.07487C12.9141 9.05254 12.998 9.01836 13.0667 9.00703C13.101 8.99908 13.2257 8.97319 13.3916 8.97319C13.6117 8.97319 13.8043 9.01735 13.9676 9.106C15.0054 9.60695 16.1708 9.64417 17.4361 9.21512C18.474 8.86508 19.353 8.21491 20.1235 7.22807C20.1486 7.19626 20.1712 7.16158 20.1917 7.12504C20.2152 7.08291 20.2168 7.03655 20.1962 6.99426C20.1366 6.87075 19.8785 6.81272 19.7698 6.79344C19.5031 6.74742 19.201 6.69497 18.9014 6.65487C18.7641 6.63593 18.6267 6.61613 18.4889 6.596L18.4712 6.59329C18.0044 6.52528 17.5218 6.4549 17.0356 6.43071C16.1471 6.38587 15.3582 6.56487 14.7126 6.9611C15.1467 6.50498 15.5903 6.07221 16.0407 5.66566C16.1831 5.53742 16.3442 5.40816 16.5637 5.24592C16.5807 5.23306 16.6239 5.218 16.6769 5.21496C18.2328 5.1549 19.5276 4.47681 20.6348 3.1423C21.2379 2.41582 21.7003 1.49953 22.0487 0.340962L22.0607 0.301204C22.0979 0.179392 22.1184 0.112396 22.0329 0.0338946C21.9669 -0.0266729 21.8507 -0.00873901 21.5487 0.109351C21.2745 0.213398 20.9986 0.314401 20.7153 0.41811C20.1462 0.626374 19.5575 0.841744 18.9893 1.08503C18.0399 1.49242 17.2817 2.10994 16.7362 2.92016C16.3207 3.53666 16.1565 4.15604 16.2338 4.81044C16.2333 4.81772 16.2268 4.83514 16.2258 4.83717C15.2347 5.6819 14.2873 6.63288 13.3145 7.76472C13.9632 6.78565 14.386 5.65839 14.5982 4.35162C14.812 3.03419 14.8256 1.86158 14.6398 0.766965C14.628 0.698446 14.612 0.629927 14.5916 0.544151L14.5613 0.412019C14.5476 0.355343 14.5044 0.309494 14.4477 0.291899C14.391 0.275319 14.3274 0.290038 14.285 0.329796C14.2172 0.392901 14.1507 0.452454 14.0857 0.510315L14.04 0.551088C13.8737 0.698954 13.7167 0.83853 13.5747 0.996378C12.1942 2.53374 11.389 4.15756 11.1133 5.96072C10.9876 6.77567 11.0397 7.46949 11.2726 8.08126C11.3498 8.28394 11.4701 8.46496 11.5899 8.64464C11.6447 8.72669 11.6996 8.80908 11.7498 8.89367C11.7868 8.95441 11.7899 8.97015 11.7897 8.96727C11.7669 9.20836 11.7342 9.47702 11.69 9.79948C11.6881 9.80354 11.6819 9.81302 11.6622 9.83873L11.6463 9.86056C10.8913 10.8965 10.1948 11.9885 9.56807 13.1189C9.81452 12.2746 10.0108 11.2061 9.99687 9.96443C9.98007 8.47512 9.63268 7.14686 8.93447 5.9032C8.90688 5.85481 8.85683 5.82334 8.78674 5.8186C8.73584 5.8186 8.68682 5.84347 8.65477 5.88594C8.63386 5.9147 8.61261 5.94177 8.59239 5.96748C8.54731 6.02501 8.50515 6.07948 8.46745 6.13768C7.91149 6.99832 7.61328 7.94726 7.41533 8.67797C7.05354 10.0181 6.8873 11.137 6.8921 12.1997C6.89484 13.103 7.0616 13.7973 7.41705 14.3849C7.52759 14.5677 7.66675 14.7278 7.8066 14.8888C7.88081 14.9743 7.95707 15.0621 8.02614 15.1521C8.07447 15.2147 8.09778 15.2785 8.09915 15.314C8.10823 15.5282 8.10343 15.7459 8.09881 15.9564L8.09555 16.1019C8.09504 16.1269 8.08921 16.1557 8.08047 16.1777C7.63419 17.2451 7.24189 18.3544 6.90735 19.4937C6.95654 19.1057 6.9843 18.7302 6.99133 18.3637C7.03178 16.2838 6.38549 14.4263 5.06996 12.8422L4.79575 12.5125C4.76404 12.4738 4.71708 12.4518 4.66704 12.4518L4.63962 12.4541C4.58101 12.4638 4.53165 12.5039 4.51125 12.5585C4.48623 12.6243 4.46172 12.6864 4.4379 12.7465C4.39197 12.8625 4.34861 12.9725 4.31193 13.0843C4.02967 13.9572 3.89119 14.9107 3.86308 16.1755L3.86257 16.2002C3.84149 17.1204 3.81252 18.381 4.19539 19.5872C4.57226 20.7747 5.23689 21.3748 5.36577 21.4826L5.37948 21.4948C5.7303 21.8039 5.95875 22.0866 6.00605 22.2701C6.02508 22.3442 6.04444 22.4185 6.06706 22.4919C6.16715 22.8186 6.1046 23.1299 6.03707 23.4661C6.00348 23.6358 5.96852 23.8111 5.95635 23.9909C5.90802 24.7106 5.84872 25.4425 5.79131 26.1502L5.78617 26.2157C5.77143 26.3962 5.75669 26.5767 5.74212 26.7572C5.59576 25.1378 5.05248 23.6657 4.11776 22.3639C3.54534 21.5674 2.86289 20.8859 2.08893 20.3379C2.05551 20.3142 2.02038 20.2931 1.97342 20.2655C1.95062 20.2525 1.92423 20.2369 1.89218 20.2171C1.84385 20.1885 1.78181 20.186 1.73194 20.21C1.68087 20.2345 1.64573 20.2844 1.63991 20.3409C1.62945 20.4433 1.61728 20.5424 1.60443 20.6453C1.57855 20.8559 1.55404 21.0549 1.55302 21.2593C1.54153 23.3778 1.99553 25.363 2.90283 27.159C3.15562 27.6601 3.48964 28.0936 3.89599 28.4479C4.29891 28.7972 4.73371 29.0033 5.22438 29.0774C5.23517 29.0792 5.26088 29.0946 5.26482 29.0977C5.29139 29.1503 5.31898 29.2031 5.34657 29.256C5.4446 29.443 5.54589 29.6364 5.59628 29.8303C5.63826 29.9942 5.63826 30.1734 5.63826 30.3632C5.63826 30.4327 5.63826 30.5028 5.64049 30.5714C5.68762 32.2125 5.74949 32.784 6.01548 34.2503C5.85318 33.8143 5.6494 33.3772 5.38633 32.9566C4.32102 31.2544 2.96761 30.0991 1.24881 29.4249C1.13947 29.3814 1.02978 29.3501 0.902618 29.3136L0.877253 29.3061C0.825667 29.2912 0.770996 29.2753 0.712555 29.2577C0.659769 29.2406 0.599614 29.2523 0.556596 29.2875C0.513751 29.3225 0.4913 29.3762 0.496955 29.432C0.509638 29.5484 0.518378 29.6616 0.526433 29.7721C0.544086 30.0143 0.56071 30.2431 0.620179 30.4694C1.17477 32.584 2.0927 34.2683 3.42623 35.6185C3.99642 36.1958 4.59729 36.5267 5.26311 36.6304C5.43106 36.6563 5.63638 36.6595 5.98394 36.6382L6.08403 36.6323C6.09928 36.6314 6.11265 36.6306 6.12482 36.6306C6.15224 36.6306 6.15447 36.6306 6.17349 36.6583L6.63914 37.2895C6.64514 37.2978 6.65388 37.3278 6.65988 37.3484L6.66673 37.3711C7.15003 38.9885 7.7497 40.5463 8.45682 42.0248C8.13857 41.5912 7.7898 41.1953 7.40111 40.8229C5.61359 39.1108 2.55749 39.0612 2.2149 39.0612L2.17222 39.0616L2.14531 39.0665C2.06134 39.0959 2.01592 39.1846 2.0418 39.268C2.06562 39.3466 2.0879 39.4261 2.11344 39.5195C2.16228 39.695 2.21301 39.8762 2.28413 40.0514C2.62279 40.8869 3.17172 41.6905 4.01201 42.5814C4.5894 43.1922 5.24031 43.8115 6.08677 44.2032C7.01378 44.6329 7.85082 44.7378 8.68322 44.5274C8.82478 44.4906 8.9876 44.4441 9.12762 44.3545C9.22736 44.2913 9.25461 44.2934 9.35264 44.3654C9.46884 44.4507 9.59241 44.5223 9.71237 44.5916C9.7787 44.6301 9.84554 44.6688 9.90792 44.7077C9.91786 44.716 9.93911 44.7503 9.947 44.763C10.6939 45.9656 11.5167 47.0832 12.4051 48.1027C11.9246 47.7576 11.4312 47.5079 10.9071 47.3415C9.30551 46.8321 7.62682 46.8969 5.96423 47.5315C5.71607 47.6265 5.44409 47.7703 5.42592 47.7804C5.38787 47.8051 5.36165 47.845 5.35343 47.8909C5.34623 47.9359 5.35805 47.9819 5.38582 48.0171C5.43775 48.0838 5.48796 48.1507 5.53766 48.2172L5.54863 48.2318C5.66089 48.3827 5.78805 48.5534 5.93064 48.7047C6.57281 49.3843 7.36477 49.8399 8.12503 50.231C9.17046 50.7665 10.2395 51.055 11.3028 51.0888C11.3528 51.0905 11.4029 51.0915 11.4528 51.0915C12.4308 51.0915 13.1944 50.7733 13.7829 50.1224C13.7901 50.1173 13.8156 50.1077 13.8297 50.1075C14.0545 50.1234 14.2682 50.1557 14.428 50.182C14.4532 50.1864 14.4842 50.2012 14.5035 50.2185C15.4868 51.0778 16.5281 51.832 17.6159 52.4739C17.451 52.4257 17.2811 52.3837 17.1074 52.35C15.9449 52.1294 14.7586 52.2678 13.4559 52.7788C12.577 53.1246 11.7597 53.6326 10.9571 54.3319C10.891 54.3892 10.8817 54.4878 10.9362 54.5562C11.2202 54.913 11.5897 55.1128 11.9138 55.261C12.7042 55.6236 13.5964 55.8557 14.6424 55.9711C14.6455 55.9712 14.9815 56 15.4528 56C15.793 56 16.1096 55.9849 16.3932 55.9553C16.6643 55.9272 16.9348 55.8814 17.1972 55.8191C18.4023 55.5295 19.219 54.934 19.6868 54.0094C19.6952 54.0014 19.7312 53.9808 19.7768 53.9698C19.9943 53.9165 20.19 53.879 20.3761 53.8544C20.42 53.8475 20.4747 53.8592 20.5436 53.8866C21.3758 54.2031 22.2566 54.4669 23.1596 54.6702C23.1723 54.6733 23.1855 54.6748 23.1987 54.6748C23.2593 54.6748 23.3152 54.6418 23.3447 54.588C23.4309 54.4296 23.5359 54.2777 23.6568 54.1364C23.6946 54.0919 23.7059 54.0327 23.6873 53.9779C23.6694 53.9248 23.6242 53.8845 23.5663 53.8712Z" fill="black"></path><g clip-path="url(#clip0_2293_10714)"><path d="M66.4912 24.5226L50.1755 24.5219C49.4551 24.5219 48.8711 25.1058 48.8711 25.8262V31.0383C48.8711 31.7586 49.4551 32.3427 50.1755 32.3427H59.3634C58.3573 34.9537 56.4795 37.1404 54.0837 38.5297L58.0015 45.3117C64.286 41.6771 68.0015 35.2998 68.0015 28.1609C68.0015 27.1444 67.9266 26.4178 67.7767 25.5996C67.6628 24.9779 67.1231 24.5226 66.4912 24.5226Z" fill="#167EE6"></path><path d="M47.9991 40.1739C43.5027 40.1739 39.5774 37.7172 37.4692 34.0818L30.6875 37.9907C34.1387 43.9721 40.6038 48 47.9991 48C51.627 48 55.0502 47.0232 57.9991 45.3209V45.3116L54.0814 38.5296C52.2894 39.569 50.2156 40.1739 47.9991 40.1739Z" fill="#12B347"></path><path d="M58 45.321V45.3117L54.0823 38.5297C52.2902 39.569 50.2166 40.174 48 40.174V48.0001C51.6279 48.0001 55.0512 47.0233 58 45.321Z" fill="#0F993E"></path><path d="M35.8261 28C35.8261 25.7837 36.4309 23.7101 37.4701 21.9182L30.6884 18.0093C28.9767 20.9489 28 24.3628 28 28C28 31.6372 28.9767 35.0511 30.6884 37.9907L37.4701 34.0818C36.4309 32.2898 35.8261 30.2163 35.8261 28Z" fill="#FFD500"></path><path d="M47.9991 15.8261C50.9313 15.8261 53.6245 16.868 55.7282 18.601C56.2472 19.0285 57.0015 18.9977 57.4769 18.5223L61.1698 14.8293C61.7092 14.2899 61.6708 13.407 61.0946 12.9072C57.57 9.84945 52.9841 8 47.9991 8C40.6038 8 34.1387 12.0279 30.6875 18.0093L37.4692 21.9182C39.5774 18.2828 43.5027 15.8261 47.9991 15.8261Z" fill="#FF4B26"></path><path d="M55.7291 18.601C56.248 19.0285 57.0024 18.9977 57.4777 18.5223L61.1707 14.8293C61.71 14.2899 61.6716 13.407 61.0955 12.9072C57.5709 9.84938 52.9849 8 48 8V15.8261C50.932 15.8261 53.6254 16.868 55.7291 18.601Z" fill="#D93F21"></path></g><path d="M95.4441 29.2865C95.4009 29.2513 95.3382 29.2401 95.2893 29.2564C95.2297 29.2745 95.175 29.2902 95.1234 29.3051L95.0983 29.3124C94.9711 29.3491 94.8612 29.3805 94.7524 29.4237C93.0331 30.098 91.6795 31.2534 90.6142 32.9555C90.3511 33.3761 90.1474 33.8132 89.9851 34.2492C90.2512 32.7828 90.3129 32.2114 90.3601 30.5706C90.3623 30.5017 90.3623 30.4317 90.3623 30.3621C90.3623 30.1723 90.3623 29.993 90.4043 29.8294C90.4547 29.6355 90.5559 29.4421 90.654 29.255C90.6816 29.2021 90.7092 29.1491 90.732 29.1026C90.7398 29.0934 90.7654 29.0781 90.7753 29.0765C91.267 29.0024 91.7018 28.7964 92.1049 28.4467C92.5111 28.0926 92.8451 27.6591 93.0979 27.158C94.0052 25.362 94.4592 23.3769 94.4477 21.2584C94.4467 21.054 94.4223 20.8551 94.3956 20.6387C94.3834 20.5417 94.3711 20.4426 94.3608 20.3399C94.355 20.2836 94.3198 20.2335 94.2689 20.2091C94.2187 20.1851 94.1581 20.1868 94.1073 20.2171C94.0766 20.236 94.0504 20.2514 94.0266 20.2651C93.9805 20.2922 93.9454 20.3133 93.9121 20.337C93.1382 20.8847 92.4555 21.5665 91.883 22.363C90.9486 23.6648 90.4051 25.1368 90.2588 26.7562C90.2442 26.5757 90.2295 26.3952 90.2147 26.2147L90.2096 26.1492C90.1522 25.4415 90.0929 24.7097 90.0445 23.99C90.0324 23.8078 89.9969 23.6305 89.9626 23.4589C89.8965 23.1292 89.8339 22.8177 89.934 22.4914C89.9568 22.4176 89.976 22.3433 89.9952 22.2692C90.0425 22.0857 90.2709 21.803 90.6218 21.4939L90.6349 21.4822C90.7643 21.3739 91.429 20.7737 91.806 19.5864C92.1887 18.3801 92.1597 17.1197 92.1387 16.1994L92.1381 16.1749C92.11 14.9097 91.9716 13.9564 91.6891 13.0833C91.6526 12.9716 91.6093 12.8615 91.5633 12.7458C91.5395 12.6855 91.5152 12.6233 91.4901 12.5581C91.4696 12.503 91.4202 12.4629 91.3625 12.4534L91.3342 12.4509C91.2841 12.4509 91.2374 12.473 91.2057 12.5113L90.9313 12.8413C89.6157 14.4252 88.9695 16.2828 89.0099 18.3627C89.0169 18.729 89.0447 19.1047 89.0939 19.4927C88.7595 18.3536 88.3674 17.2448 87.9215 16.1781C87.9122 16.1547 87.9062 16.1258 87.9055 16.1013L87.9024 15.9554C87.8978 15.745 87.893 15.5272 87.9021 15.3131C87.9035 15.2775 87.9268 15.2137 87.9753 15.151C88.0442 15.0611 88.1206 14.9733 88.1998 14.882C88.3347 14.727 88.474 14.567 88.5844 14.3843C88.9398 13.7965 89.1067 13.1022 89.1095 12.199C89.1143 11.1357 88.9482 10.0167 88.5863 8.67731C88.3885 7.94662 88.0899 6.99735 87.534 6.13674C87.4963 6.07888 87.4541 6.0244 87.4092 5.96671C87.389 5.94116 87.3677 5.91393 87.3461 5.88466C87.3146 5.84287 87.2711 5.81851 87.2008 5.81851C87.1448 5.82257 87.0947 5.85404 87.0668 5.90293C86.3689 7.14623 86.0213 8.47446 86.0049 9.96359C85.9908 11.2052 86.1872 12.2736 86.4335 13.1179C85.8068 11.9877 85.1103 10.8956 84.3553 9.85971L84.338 9.83619C84.3209 9.81369 84.3137 9.8027 84.3149 9.81048C84.2674 9.47533 84.2345 9.20718 84.2117 8.97372C84.2122 8.97016 84.2167 8.95054 84.252 8.89234C84.3019 8.80843 84.3565 8.7262 84.4146 8.63925C84.5312 8.46431 84.6515 8.28329 84.7286 8.08061C84.9613 7.46886 85.0136 6.77505 84.888 5.96028C84.6122 4.15699 83.8069 2.5332 82.4266 0.995863C82.2845 0.838018 82.1275 0.698444 81.9615 0.55092L81.9155 0.509809C81.8506 0.45178 81.7839 0.392398 81.7166 0.329632C81.6737 0.289367 81.6124 0.274311 81.5529 0.291567C81.4967 0.309162 81.4533 0.355178 81.44 0.412361L81.4098 0.542969C81.3892 0.629589 81.3733 0.697937 81.3615 0.766624C81.1757 1.86122 81.1892 3.03364 81.4031 4.35121C81.6153 5.65796 82.0381 6.78503 82.6868 7.76408C81.714 6.6326 80.7678 5.68249 79.7789 4.84048C79.7745 4.83473 79.768 4.8173 79.7674 4.8129C79.8447 4.15564 79.6805 3.53644 79.2651 2.91995C78.7196 2.10974 77.9616 1.49224 77.0121 1.08485C76.444 0.841571 75.8553 0.626205 75.2789 0.415237C75.0028 0.314068 74.7267 0.213237 74.4424 0.105131C74.1567 -0.00703581 74.0345 -0.0269991 73.9682 0.0335673C73.8829 0.112067 73.9034 0.179062 73.9406 0.300872L73.9526 0.340629C74.301 1.49917 74.7634 2.41545 75.3665 3.14174C76.4736 4.4764 77.7684 5.15448 79.3229 5.21437C79.3774 5.21758 79.4206 5.23247 79.4382 5.246C79.6571 5.40774 79.8182 5.53716 79.9606 5.6654C80.411 6.07177 80.8545 6.5047 81.2885 6.96064C80.643 6.56476 79.8542 6.38611 78.9657 6.43043C78.4795 6.45462 77.9969 6.525 77.5302 6.59301L77.5124 6.59572C77.3744 6.61568 77.2372 6.63548 77.1002 6.6546C76.8003 6.69469 76.498 6.74714 76.231 6.79315C76.1228 6.81227 75.8646 6.8703 75.8051 6.99397C75.7845 7.03627 75.7862 7.08262 75.8095 7.12475C75.8301 7.16146 75.8527 7.19597 75.8774 7.22744C76.6481 8.21461 77.5273 8.86476 78.5652 9.2148C79.8307 9.64384 80.993 9.60848 82.0374 9.10381C82.1971 9.01702 82.3898 8.97304 82.6098 8.97304C82.7759 8.97304 82.9005 8.99892 82.9418 9.00823C83.0036 9.01838 83.0876 9.05255 83.1048 9.07455C83.7543 9.91757 84.3708 10.8179 84.9464 11.7638C84.4601 11.2969 83.8258 10.9821 82.9617 10.777C82.2043 10.5989 81.43 10.5606 80.6814 10.5234L80.4307 10.5109C80.1959 10.499 79.9611 10.4843 79.7193 10.4693L79.3138 10.4446C79.2613 10.4446 79.2115 10.4696 79.181 10.5112C79.1472 10.5561 79.1391 10.6143 79.159 10.6665C79.1753 10.7102 79.205 10.7872 79.2202 10.8129C80.0098 12.1166 80.9369 13.0183 82.0544 13.5698C83.1468 14.1085 84.1337 14.2509 85.1293 14.016C85.2445 13.9885 85.378 13.974 85.5159 13.974C85.9394 13.974 86.2347 14.1016 86.2968 14.2196C86.8445 15.3351 87.3333 16.4941 87.7549 17.6763C87.3127 17.0746 86.6944 16.5858 85.9115 16.2202C85.1338 15.8578 84.324 15.5266 83.5272 15.2006C83.1848 15.0608 82.841 14.9206 82.4988 14.7771C82.4479 14.7551 82.3877 14.7597 82.3402 14.7906C82.2936 14.8213 82.2658 14.8723 82.2658 14.9273C82.2658 15.0329 83.4021 18.146 85.0524 19.3727C85.7255 19.8731 86.5547 20.388 87.6003 20.4121C87.9132 20.4184 88.2368 20.4621 88.4812 20.7363C88.5186 20.7799 88.5681 20.8139 88.6221 20.832C88.7055 20.8591 88.7285 20.9095 88.7696 21.0814C89.1083 22.4849 89.3549 23.9316 89.5067 25.4006C89.4608 25.2515 89.4075 25.101 89.3463 24.9485C88.977 24.024 88.3554 23.2149 87.3902 22.4024C86.8927 21.9818 86.3716 21.5746 85.8678 21.1806L85.8438 21.1619C85.6143 20.9824 85.3853 20.8036 85.1571 20.6226C85.1099 20.5852 85.064 20.5466 85.0107 20.5016L84.8683 20.3812C84.8184 20.3396 84.7442 20.3309 84.6859 20.3597C84.6261 20.3896 84.5903 20.4516 84.5949 20.5177C84.602 20.617 84.6076 20.7109 84.6129 20.8011L84.6157 20.8432C84.627 21.0288 84.6376 21.2039 84.6566 21.3768C84.8352 23.0603 85.3423 24.4659 86.207 25.6736C86.7422 26.4202 87.51 27.3328 88.7072 27.7644C88.9986 27.8699 89.2099 28.0298 89.4363 28.3167C89.6498 28.5854 89.6896 28.8309 89.6848 29.1398C89.6644 30.4339 89.571 31.7176 89.4063 32.9748C89.3678 32.6249 89.2862 32.2647 89.1609 31.8905C88.9016 31.1157 88.4975 30.3623 87.9252 29.5875C87.4313 28.9165 86.9173 28.2431 86.4203 27.5916L86.3872 27.5482C86.1902 27.2902 85.9932 27.0318 85.8015 26.7791C85.7655 26.7271 85.7135 26.7085 85.6835 26.6982C85.641 26.6777 85.5903 26.6757 85.5452 26.6946C85.501 26.7133 85.4671 26.75 85.4522 26.795L85.4464 26.8126C85.4381 26.8362 85.4316 26.8572 85.4282 26.8782C85.0854 28.8958 85.2957 30.7035 86.0709 32.4051C86.4495 33.2372 86.9573 34.1792 87.8526 34.8569C88.2613 35.1663 88.584 35.6004 88.7612 36.0791C88.7988 36.1821 88.7974 36.2267 88.7931 36.244C88.4142 37.7934 87.9192 39.2877 87.3175 40.7021C87.4724 39.9567 87.4618 39.1737 87.2849 38.3625C87.0339 37.2127 86.6023 36.0985 86.2174 35.1443L86.1021 34.8586C85.9216 34.4114 85.7399 33.9608 85.5523 33.4936C85.5284 33.4339 85.471 33.3932 85.3944 33.3894C85.3341 33.3894 85.2786 33.4234 85.2498 33.4786L85.1893 33.5909C85.1627 33.6402 85.1379 33.686 85.1166 33.7334C84.3423 35.458 84.0808 37.2259 84.3397 38.9881C84.5248 40.2482 84.8385 41.1504 85.3567 41.9137C85.6249 42.3083 85.8798 42.7478 85.9261 43.2883C85.937 43.4162 85.9319 43.5044 85.8741 43.6047C85.2205 44.7346 84.4876 45.801 83.6851 46.7917C83.6881 46.7863 83.6911 46.7809 83.6941 46.7755C84.2715 45.7338 84.289 44.6076 84.2301 43.6431C84.1792 42.8163 84.0832 41.9907 83.9908 41.1925L83.9855 41.1463C83.9483 40.8266 83.9113 40.507 83.8775 40.1867C83.858 40.0052 83.8362 39.8237 83.8138 39.6395L83.7841 39.3901C83.7776 39.3349 83.7435 39.2872 83.6945 39.2632C83.6033 39.2162 83.4558 39.2887 83.2964 39.4748C82.2011 40.7537 81.5214 42.1988 81.2759 43.7703C81.0214 45.3997 81.1594 46.7941 81.6982 48.0331C81.7126 48.0661 81.7123 48.1335 81.7121 48.156L81.6831 48.8689C81.6789 48.9202 81.6514 48.978 81.6288 48.9995C80.5351 50.0393 79.3309 50.9432 78.0387 51.6956C78.6504 51.1498 79.0901 50.4377 79.3751 49.5353C79.691 48.5351 79.8531 47.4941 80.0103 46.4848L80.024 46.395C80.0797 46.0404 80.1378 45.6865 80.1971 45.3247L80.2641 44.9158C80.2737 44.8563 80.2499 44.7967 80.2031 44.761C80.1566 44.7245 80.0895 44.7157 80.036 44.7384L79.9776 44.7622C79.9152 44.7874 79.8608 44.8099 79.8096 44.8358C77.3667 46.0402 75.7586 48.8493 75.9859 51.5149C76.0215 51.9324 75.9828 52.3246 75.8673 52.713C75.8565 52.7484 75.8219 52.7868 75.8078 52.7932C74.6476 53.2762 73.5444 53.6286 72.4343 53.8705C72.3773 53.8836 72.332 53.9238 72.3135 53.9781C72.2948 54.0328 72.3061 54.0922 72.3442 54.1368C72.4648 54.2779 72.5699 54.4297 72.6563 54.5885C72.6918 54.6535 72.7762 54.6868 72.8395 54.6706C73.7439 54.4669 74.6246 54.2031 75.458 53.8861C75.5254 53.8594 75.5768 53.8467 75.625 53.8545C75.8104 53.8788 76.0063 53.9164 76.2238 53.9697C76.2687 53.9805 76.3059 54.001 76.3065 53.9991C76.7816 54.934 77.5981 55.5295 78.8034 55.8193C79.0656 55.8814 79.3361 55.9273 79.6072 55.9553C79.891 55.9849 80.2075 56 80.5477 56C81.019 56 81.3551 55.9712 81.3592 55.9709C82.404 55.8555 83.2962 55.6234 84.0864 55.2612C84.4107 55.1128 84.7802 54.913 85.0642 54.5562C85.1185 54.4879 85.1094 54.3892 85.0434 54.3319C84.2407 53.6327 83.4234 53.1246 82.5443 52.7788C81.242 52.2679 80.0557 52.1295 78.8929 52.3503C78.7191 52.3836 78.5494 52.4256 78.3846 52.4738C79.4723 51.8319 80.5138 51.0775 81.4974 50.2181C81.5162 50.2012 81.5472 50.1863 81.5714 50.1821C81.7323 50.1557 81.946 50.1232 82.1647 50.1076C82.185 50.1076 82.2107 50.1173 82.2136 50.1183C82.8062 50.773 83.5697 51.0912 84.5478 51.0912C84.5977 51.0912 84.6477 51.0902 84.6976 51.0885C85.761 51.0547 86.8301 50.7663 87.8757 50.2308C88.6356 49.8395 89.4277 49.3839 90.0701 48.7045C90.2125 48.5534 90.3397 48.3825 90.4519 48.2318L90.4629 48.217C90.5126 48.1506 90.5628 48.0836 90.6144 48.0174C90.6425 47.9817 90.6543 47.9357 90.6469 47.8893C90.6391 47.8447 90.6128 47.8049 90.5681 47.7762C90.5568 47.7701 90.2848 47.6261 90.0365 47.5312C88.3737 46.8969 86.695 46.832 85.0937 47.3414C84.5694 47.5077 84.076 47.7574 83.5956 48.1025C84.484 47.083 85.3067 45.9654 86.0536 44.7629C86.0616 44.7502 86.0829 44.7159 86.0897 44.7096C86.155 44.6685 86.2219 44.6296 86.2885 44.5912C86.408 44.522 86.5317 44.4504 86.6479 44.3652C86.7459 44.2929 86.7735 44.2911 86.8726 44.354C87.0128 44.4438 87.1758 44.4905 87.3179 44.5272C88.1491 44.7374 88.9869 44.6326 89.9138 44.2031C90.7604 43.8113 91.4113 43.1919 91.9889 42.5812C92.829 41.6903 93.3779 40.8865 93.7166 40.0514C93.7877 39.8761 93.8384 39.6949 93.8912 39.5055C93.913 39.4259 93.9353 39.3464 93.9589 39.2683C93.9848 39.1844 93.9395 39.0955 93.8556 39.0663L93.786 39.061C93.4434 39.061 90.3873 39.1106 88.5998 40.8227C88.2109 41.1952 87.8623 41.5911 87.5441 42.0245C88.2512 40.5463 88.8509 38.9883 89.3342 37.3711L89.3412 37.3474C89.347 37.3276 89.3558 37.2977 89.3616 37.2895L89.8291 36.6558C89.8466 36.6304 89.8486 36.6304 89.8761 36.6304C89.8882 36.6304 89.9016 36.6313 89.9169 36.6321L90.0168 36.638C90.3647 36.6593 90.5695 36.6563 90.738 36.6302C91.4036 36.5265 92.0045 36.1956 92.5747 35.6184C93.9082 34.2683 94.8261 32.584 95.3807 30.4696C95.4402 30.243 95.4568 30.0143 95.4746 29.7717C95.4825 29.6617 95.4912 29.5484 95.5039 29.4313C95.5092 29.3751 95.4869 29.3215 95.4441 29.2865Z" fill="black"></path><defs><clipPath id="clip0_2293_10714"><rect width="40" height="40" fill="white" transform="translate(28 8)"></rect></clipPath></defs></svg>